HIERARCHY
ROOT Hips
{
    OFFSET 0.000000 0.000000 0.000000
    CHANNELS 6 Xposition Yposition Zposition Zrotation Xrotation Yrotation
    JOINT Spine
    {
        OFFSET -0.000000 7.925200 0.000000
        CHANNELS 3 Zrotation Xrotation Yrotation
        JOINT Spine1
        {
            OFFSET -0.000000 23.364719 0.000000
            CHANNELS 3 Zrotation Xrotation Yrotation
            JOINT Neck
            {
                OFFSET -0.000000 23.268766 2.115342
                CHANNELS 3 Zrotation Xrotation Yrotation
                JOINT Head
                {
                    OFFSET -0.000000 13.530829 -1.932976
                    CHANNELS 3 Zrotation Xrotation Yrotation
                    End Site
                    {
                        OFFSET -0.000000 24.162195 0.000000
                    }
                }
            }
            JOINT LeftShoulder
            {
                OFFSET 3.858291 22.792089 -0.033814
                CHANNELS 3 Zrotation Xrotation Yrotation
                JOINT LeftArm
                {
                    OFFSET 7.057024 0.000000 0.000000
                    CHANNELS 3 Zrotation Xrotation Yrotation
                    JOINT LeftForeArm
                    {
                        OFFSET 34.734173 0.000000 0.000000
                        CHANNELS 3 Zrotation Xrotation Yrotation
                        JOINT LeftHand
                        {
                            OFFSET 23.943203 0.000000 0.000000
                            CHANNELS 3 Zrotation Xrotation Yrotation
                            End Site
                            {
                                OFFSET 14.497317 0.000000 0.000000
                            }
                        }
                    }
                }
            }
            JOINT RightShoulder
            {
                OFFSET -3.868823 22.792089 -0.033814
                CHANNELS 3 Zrotation Xrotation Yrotation
                JOINT RightArm
                {
                    OFFSET -7.057024 0.000000 0.000000
                    CHANNELS 3 Zrotation Xrotation Yrotation
                    JOINT RightForeArm
                    {
                        OFFSET -34.734173 0.000000 0.000000
                        CHANNELS 3 Zrotation Xrotation Yrotation
                        JOINT RightHand
                        {
                            OFFSET -23.943203 0.000000 0.000000
                            CHANNELS 3 Zrotation Xrotation Yrotation
                            End Site
                            {
                                OFFSET -14.497317 0.000000 0.000000
                            }
                        }
                    }
                }
            }
        }
    }
    JOINT LeftUpLeg
    {
        OFFSET 9.664878 0.000000 0.000000
        CHANNELS 3 Zrotation Xrotation Yrotation
        JOINT LeftLeg
        {
            OFFSET -0.000000 -38.728706 0.000000
            CHANNELS 3 Zrotation Xrotation Yrotation
            JOINT LeftFoot
            {
                OFFSET -0.000000 -40.242161 0.000000
                CHANNELS 3 Zrotation Xrotation Yrotation
                JOINT LeftToeBase
                {
                    OFFSET -0.000000 -6.282171 14.497317
                    CHANNELS 3 Zrotation Xrotation Yrotation
                    End Site
                    {
                        OFFSET -0.000000 0.000000 3.865951
                    }
                }
            }
        }
    }
    JOINT RightUpLeg
    {
        OFFSET -9.664878 0.000000 0.000000
        CHANNELS 3 Zrotation Xrotation Yrotation
        JOINT RightLeg
        {
            OFFSET -0.000000 -38.728706 0.000000
            CHANNELS 3 Zrotation Xrotation Yrotation
            JOINT RightFoot
            {
                OFFSET -0.000000 -40.242161 0.000000
                CHANNELS 3 Zrotation Xrotation Yrotation
                JOINT RightToeBase
                {
                    OFFSET -0.000000 -6.282171 14.497317
                    CHANNELS 3 Zrotation Xrotation Yrotation
                    End Site
                    {
                        OFFSET -0.000000 0.000000 3.865951
                    }
                }
            }
        }
    }
}
MOTION
Frames:    7
Frame Time:    0.008333
124.553970    88.793076    2.771131    -1.429344    -2.690165    88.920975    -0.475316    -4.241321    -0.527074    3.373358    2.364105    -0.579147    0.169880    20.415955    6.403552    -4.010134    -5.931521    5.897651    16.282452    -1.572100    2.023947    -9.527698    2.555299    -9.028822    6.550114    -3.236650    -4.343964    -4.351282    -2.840145    -3.903848    -12.544004    0.469608    5.638695    12.407991    2.894863    9.660586    -2.565171    -2.751503    1.886524    4.176865    -2.564941    3.961809    4.928264    4.053575    0.592024    -2.278107    -0.600608    -3.156107    0.399186    -4.856777    9.399057    0.000000    0.000000    0.000000    4.119771    1.462428    -1.239227    -1.863069    3.983008    0.075168    1.971874    -4.622576    -10.803763    0.000000    0.000000    0.000000    
124.548660    88.795837    2.778681    -1.426052    -2.708379    88.952576    -0.483987    -4.246263    -0.552349    3.357091    2.369577    -0.603939    0.267882    20.398533    6.385281    -4.037009    -5.895049    5.878548    16.374966    -1.559961    2.041170    -9.511368    2.501236    -9.033225    6.610438    -3.153040    -4.275642    -5.184353    -2.715519    -4.218189    -12.430717    0.432126    5.651281    12.413513    2.916666    9.640026    -2.586693    -2.750373    1.878381    4.149005    -2.565070    3.948847    4.951498    4.049966    0.583278    -2.269777    -0.601901    -3.169843    0.388306    -4.858271    9.379345    0.000000    0.000000    0.000000    4.145683    1.456990    -1.242267    -1.861337    3.997889    0.042994    1.950187    -4.610334    -10.807173    0.000000    0.000000    0.000000    
124.543854    88.799957    2.783757    -1.419747    -2.718922    88.981049    -0.546558    -4.244643    -0.563198    3.428146    2.369231    -0.613780    0.415543    20.378729    6.369102    -4.179274    -5.840102    5.842099    16.456825    -1.561004    2.020817    -9.505953    2.505826    -9.057610    6.571524    -3.210316    -4.153639    -5.719341    -2.753624    -4.376778    -12.360573    0.421339    5.588318    12.413553    2.948503    9.659814    -2.618069    -2.755341    1.879390    4.144497    -2.568851    3.971050    4.966837    4.055609    0.573684    -2.273908    -0.623090    -3.171190    0.390957    -4.829645    9.375267    0.000000    0.000000    0.000000    4.156516    1.464758    -1.272102    -1.847944    3.989574    0.090052    1.945631    -4.589379    -10.862383    0.000000    0.000000    0.000000    
124.542854    88.799652    2.791564    -1.401545    -2.732540    89.012299    -0.605462    -4.212202    -0.586333    3.528309    2.318828    -0.635472    0.380797    20.335573    6.365744    -4.136078    -5.710634    5.849909    16.434242    -1.565534    1.986812    -9.479506    2.521617    -8.998015    6.564185    -3.316512    -4.161306    -6.069405    -2.845070    -4.399948    -12.334793    0.435878    5.609569    12.420790    2.951383    9.631056    -2.620028    -2.744187    1.869828    4.334849    -2.549530    4.017488    4.985585    4.067621    0.576778    -2.336611    -0.665392    -2.998877    0.457015    -4.781115    9.275403    0.000000    0.000000    0.000000    4.177852    1.479798    -1.292951    -1.863646    4.004202    0.072308    1.969017    -4.596986    -10.824672    0.000000    0.000000    0.000000    
124.539520    88.800644    2.798180    -1.392880    -2.749646    89.034149    -0.644724    -4.214407    -0.601245    3.582967    2.331166    -0.650471    0.415875    20.340858    6.346865    -4.152391    -5.716087    5.828342    16.506657    -1.570709    1.980865    -9.489124    2.499876    -8.993964    6.466005    -3.441242    -4.123968    -6.281912    -2.969920    -4.353596    -12.295305    0.430887    5.581678    12.433553    2.918118    9.640560    -2.571813    -2.745487    1.848812    4.115857    -2.558562    4.050992    5.009537    4.075567    0.563765    -2.268534    -0.628416    -3.191441    0.366584    -4.837111    9.344479    0.000000    0.000000    0.000000    4.201565    1.485049    -1.299560    -1.857433    4.007118    0.061394    1.940006    -4.582361    -10.843289    0.000000    0.000000    0.000000    
124.535774    88.802475    2.805391    -1.386547    -2.756342    89.054626    -0.717249    -4.208416    -0.617275    3.680239    2.320824    -0.665504    0.479777    20.391220    6.341680    -4.240254    -5.768929    5.806989    16.541260    -1.577831    1.970942    -9.519922    2.217446    -9.031903    6.325914    -3.427399    -4.026493    -6.394825    -2.966183    -4.282656    -12.256412    0.434421    5.556933    12.438478    2.953033    9.639723    -2.606627    -2.774429    1.862704    4.144423    -2.587957    3.986739    5.023010    4.073699    0.570950    -2.268770    -0.628921    -3.236405    0.349685    -4.833146    9.364755    0.000000    0.000000    0.000000    4.212334    1.492164    -1.297286    -1.852683    4.006630    0.088956    1.927894    -4.581575    -10.899044    0.000000    0.000000    0.000000    
124.533928    88.802994    2.814178    -1.374074    -2.772075    89.071579    -0.786383    -4.190938    -0.635221    3.802129    2.286789    -0.682357    0.440678    20.371588    6.337554    -4.207592    -5.673051    5.810750    16.523022    -1.582257    1.942485    -9.458529    2.492159    -8.970933    6.257546    -3.707690    -4.054910    -6.458394    -3.251927    -4.161025    -12.238163    0.449945    5.578021    12.441826    2.903533    9.613232    -2.584471    -2.761404    1.861426    4.098063    -2.579047    3.927168    5.049121    4.084960    0.571054    -2.341667    -0.674712    -3.076612    0.439203    -4.780277    9.292627    0.000000    0.000000    0.000000    4.238654    1.497145    -1.293918    -1.855277    4.016101    0.070488    1.941968    -4.584811    -10.912663    0.000000    0.000000    0.000000    
